<svg width="32" height="32" version="1.1" viewBox="0 0 32 32" xml:space="preserve" xmlns="http://www.w3.org/2000/svg"><defs><clipPath id="clipPath849"><path d="M 0,254.625 H 200.476 V 0 H 0 Z"/></clipPath></defs><g transform="matrix(1.3333 0 0 -1.3333 0 339.5)"><g transform="matrix(.093798 0 0 .093798 2.6812 230.66)" stroke-width="10.661"><g clip-path="url(#clipPath849)" stroke-width="10.661"><g transform="translate(132.57 41.833)"><path d="m0 0h-64.667c-9.343 0-16.944 7.601-16.944 16.944 0 2.762 2.239 5 5 5s5-2.238 5-5c0-3.829 3.115-6.944 6.944-6.944h64.667c3.829 0 6.944 3.115 6.944 6.944v3.605c0 9.549 5.155 13.07 10.613 16.798 0.453 0.31 0.922 0.63 1.407 0.966 24.383 16.879 38.94 44.633 38.94 74.241 0 24.341-9.546 47.16-26.879 64.254-17.33 17.09-40.277 26.299-64.648 25.975-48.703-0.68-88.604-40.865-88.946-89.581-0.21-29.875 14.351-57.874 38.95-74.897 2.271-1.572 2.838-4.686 1.266-6.957-1.571-2.271-4.687-2.838-6.957-1.266-27.32 18.906-43.492 50.005-43.259 83.19 0.38 54.116 44.705 98.755 98.807 99.51 27.045 0.383 52.558-9.87 71.808-28.854 19.255-18.987 29.858-44.335 29.858-71.374 0-32.889-16.167-63.716-43.248-82.463-0.503-0.348-0.989-0.68-1.459-1.001-5.262-3.595-6.253-4.403-6.253-8.541v-3.605c0-9.343-7.601-16.944-16.944-16.944" fill="#4f4537"/></g><g transform="translate(129.4 20.667)"><path d="m0 0h-58.333c-4.327 0-7.834 3.507-7.834 7.833 0 4.327 3.507 7.834 7.834 7.834h58.333c4.326 0 7.833-3.507 7.833-7.834 0-4.326-3.507-7.833-7.833-7.833" fill="#98b62d"/></g><g transform="translate(114.93)"><path d="m0 0h-29.389c-4.326 0-7.833 3.507-7.833 7.833 0 4.327 3.507 7.834 7.833 7.834h29.389c4.326 0 7.833-3.507 7.833-7.834 0-4.326-3.507-7.833-7.833-7.833" fill="#98b62d"/></g><g transform="translate(130.27 90.554)"><path d="m0 0c-7.494 2.013-15.126 3.215-22.881 3.576-14.449 0.673-28.512-1.54-42.311-5.703-3.06-0.924-6.055-2.02-9.017-3.207 12.756-8.164 27.905-12.916 44.173-12.916 16.333 0 31.538 4.79 44.326 13.013-4.615 2.136-9.369 3.915-14.29 5.237" fill="#feba0f"/></g><g transform="translate(124.07 160.53)"><path d="m0 0c0.795-0.343 1.05-0.646 1.468-0.95 1.795-1.303 3.268-2.894 4.598-4.692 2.003-2.706 3.862-6.203 4.117-9.622 0.305-4.086-1.265-7.677-3.491-11.183-0.969-1.527-2.268-2.711-3.678-3.796-0.218-0.167-0.516-0.449-0.8-0.163-0.272 0.275-0.016 0.566 0.143 0.81 1.435 2.203 2.471 4.588 3.193 7.108 1.128 3.932 0.848 7.857-0.505 11.638-0.962 2.69-2.027 5.372-3.547 7.834-0.557 0.904-0.954 1.907-1.498 3.016m-13.748-49.119c-4.854 0.352-9.677 1.059-14.606 0.467-4.071-0.489-8.189-0.9-12.319-0.72-0.343 0.015-1.488 0.13-0.89 0.464 0.385 0.215 0.55 0.29 0.84 0.386 0.94 0.315 1.504 0.508 2.258 0.802 5.147 2.002 9.779 4.767 15.315 4.471 4.702-0.251 10.031-3.262 14.517-4.636 1.039-0.319 1.823-0.591 2.993-1.368-2.716-0.115-5.403-0.063-8.108 0.134m-29.128 47.549c-0.078 0.212-0.221 0.472 0.022 0.642 0.204 0.143 0.362-0.081 0.518-0.192 6.55-4.649 11.533-10.679 11.991-17.795-0.137-6.817-4.328-12.247-8.864-16.214-0.176-0.154-0.366-0.295-0.563-0.42-0.288-0.184-0.613-0.378-0.903-0.051-0.275 0.311-0.114 0.649 0.115 0.907 1.276 1.434 1.822 3.27 2.604 4.95 1.704 3.657 2.235 7.552 1.649 11.565-0.74 5.071-2.687 9.719-5.26 14.089-0.486 0.827-0.982 1.621-1.309 2.519m44.678-38.648c4.988 0.351 9.405 2.178 13.134 5.429 3.983 3.473 6.993 7.652 8.121 12.963 1.503 7.081 0.225 13.644-4.087 19.431-4.455 5.978-10.514 9.194-18.047 9.401-1.494 0.041-3.037-0.123-3.228 1.983-6.574 13.798-24.124 17.965-36.189 8.562-3.363-2.621-5.958-5.868-7.423-9.925-0.204-0.566-0.599-0.54-1.036-0.529-1.715 0.042-3.427-0.049-5.106-0.369-15.393-2.939-23.977-19.713-16.678-34.247 2.633-5.243 6.73-9.051 12.336-11.069 2.369-0.853 4.791-1.479 7.325-1.63 1.505-0.089 1.502-0.14 1.503-1.679v-7.637h-0.091c0-1.742 0.024-3.486-0.013-5.228-0.013-0.659 0.06-0.91 0.857-0.814 4.024 0.485 7.95 1.513 11.962 2.069 4.179 0.579 8.347 1.31 12.578 1.168 4.256-0.144 8.445-0.96 12.646-1.609 2.906-0.45 5.802-0.962 8.699-1.468 0.761-0.133 1.138 0.031 1.088 0.9-0.079 1.366-0.11 2.736-0.107 4.104 7e-3 2.747 0.092 5.494 0.067 8.24-0.016 1.732-0.032 1.833 1.689 1.954" fill="#feba0f"/></g><g transform="translate(100.24 236.47)"><path d="m0 0c-45.333 0-82.083-36.75-82.083-82.083 0-27.179 13.218-51.262 33.567-66.2 5.74 2.523 11.616 4.663 17.722 6.129 0.448 0.108 0.522 0.279 0.522 0.657-5e-3 6.033-9e-3 12.066 7e-3 18.099 2e-3 0.545-0.264 0.559-0.68 0.578-6.364 0.296-12.186 2.222-17.235 6.124-6.746 5.215-10.793 12.064-11.875 20.574-1.931 15.193 8.48 29.714 23.61 33.019 2.442 0.533 4.901 0.709 7.388 0.61 0.6-0.024 0.953 0.13 1.208 0.762 3.029 7.492 8.278 12.878 15.607 16.245 15.75 7.235 33.837-0.85 40.076-16.097 0.305-0.747 0.729-0.905 1.441-0.889 7.319 0.172 13.844-2.071 19.588-6.571 7.144-5.597 11.391-14.423 11.422-23.604 0.043-12.408-8.067-23.983-19.757-28.243-2.884-1.051-5.832-1.773-8.905-1.854-0.846-0.022-0.988-0.379-0.987-1.1 5e-3 -5.161-0.014-10.322-0.031-15.483-6e-3 -2.087-4e-3 -2.06 1.899-2.633 5.519-1.663 10.868-3.756 16.04-6.303 20.333 14.94 33.539 39.013 33.539 66.18 0 45.333-36.75 82.083-82.083 82.083" fill="#feba0f"/></g></g></g></g></svg>
