<svg width="36.43" height="36.43" version="1.1" viewBox="0 0 36.43 36.43" xml:space="preserve" xmlns="http://www.w3.org/2000/svg"><g transform="matrix(1.3922 0 0 1.3922 -7.1433 -10.998)"><g stroke-width="9.4706"><g transform="matrix(.10112 0 0 -.10112 21.485 29.622)"><path d="m0 0h-64.667c-9.343 0-16.944 7.601-16.944 16.944 0 2.762 2.239 5 5 5s5-2.238 5-5c0-3.829 3.115-6.944 6.944-6.944h64.667c3.829 0 6.944 3.115 6.944 6.944v3.605c0 9.549 5.155 13.07 10.613 16.798 0.453 0.31 0.922 0.63 1.407 0.966 24.383 16.879 38.94 44.633 38.94 74.241 0 24.341-9.546 47.16-26.879 64.254-17.33 17.09-40.277 26.299-64.648 25.975-48.703-0.68-88.604-40.865-88.946-89.581-0.21-29.875 14.351-57.874 38.95-74.897 2.271-1.572 2.838-4.686 1.266-6.957-1.571-2.271-4.687-2.838-6.957-1.266-27.32 18.906-43.492 50.005-43.259 83.19 0.38 54.116 44.705 98.755 98.807 99.51 27.045 0.383 52.558-9.87 71.808-28.854 19.255-18.987 29.858-44.335 29.858-71.374 0-32.889-16.167-63.716-43.248-82.463-0.503-0.348-0.989-0.68-1.459-1.001-5.262-3.595-6.253-4.403-6.253-8.541v-3.605c0-9.343-7.601-16.944-16.944-16.944" fill="#4f4537" stroke-width="11.712"/></g><g transform="matrix(.10112 0 0 -.10112 21.164 31.763)"><path d="m0 0h-58.333c-4.327 0-7.834 3.507-7.834 7.833 0 4.327 3.507 7.834 7.834 7.834h58.333c4.326 0 7.833-3.507 7.833-7.834 0-4.326-3.507-7.833-7.833-7.833" fill="#98b62d" stroke-width="11.712"/></g><g transform="matrix(.10112 0 0 -.10112 19.701 33.853)"><path d="m0 0h-29.389c-4.326 0-7.833 3.507-7.833 7.833 0 4.327 3.507 7.834 7.833 7.834h29.389c4.326 0 7.833-3.507 7.833-7.834 0-4.326-3.507-7.833-7.833-7.833" fill="#98b62d" stroke-width="11.712"/></g></g><circle transform="scale(1,-1)" cx="18.215" cy="-18.124" r="7.6964" fill="#feba0f" stroke="#feba0f" stroke-linecap="round" stroke-linejoin="bevel" stroke-width=".71831" style="paint-order:stroke fill markers"/></g></svg>
